# xmcd CD database file
#
# Track frame offsets:
#	150
#	47625
#	72087
#	114657
#	194990
#	228175
#	318375
#
# Disc length: 4655 seconds
#
# Revision: 1
# Processed by: cddbd v1.5.1PL0 Copyright (c) Steve Scherf et al.
# Submitted via: CDex 1.51
#
DISCID=61122d07
DTITLE=カルロス・クライバー／ドレスデン国立管弦楽団 - 楽劇「トリスタンとイゾルデ」 DISC1
DYEAR=1982
DGENRE=Classical
TTITLE0=第1幕 前奏曲
TTITLE1=第1幕 第1場 西の方へ目は向くが
TTITLE2=第1幕 第2場 さわやかな風は故郷へと吹いていく!
TTITLE3=第1幕 第3場 ああ、何ということを!
TTITLE4=第1幕 第4場 さあ! ご婦人がた
TTITLE5=第1幕 第4場 トリスタン様お入りください!・第5場 お姫様、おっしゃって下さい、何をお望みですか
TTITLE6=第1幕 第5場 「トリスタン!」「イゾルデ!」「不実にして優しき人」
EXTD=YEAR: 1982
EXTT0=
EXTT1=
EXTT2=
EXTT3=
EXTT4=
EXTT5=
EXTT6=
PLAYORDER=
